<svg version="1.1" id="Layer_1" xmlns="http://www.w3.org/2000/svg" xmlns:xlink="http://www.w3.org/1999/xlink" x="0px" y="0px"
	 width="100%" viewBox="0 0 512 512" enable-background="new 0 0 512 512" xml:space="preserve">
<path fill="#000000" opacity="1.000000" stroke="none" 
	d="
M251.531372,1.000000 
	C265.138458,4.393607 276.767212,10.299208 285.943756,20.641117 
	C293.904236,29.612469 298.600220,39.982410 300.358215,51.767277 
	C300.724304,54.221367 301.021454,56.686226 301.422974,59.134212 
	C301.524628,59.753998 301.757568,60.477173 302.182434,60.898434 
	C304.641205,63.336357 316.542419,61.250862 318.393799,58.107098 
	C326.117950,44.991333 337.935944,40.614082 352.291412,45.551823 
	C368.364349,51.080299 373.722290,73.598152 362.609589,86.583046 
	C350.272400,100.998779 326.401978,98.703445 318.491089,81.483559 
	C316.855072,77.922417 314.267578,78.373161 311.512177,78.387428 
	C299.855560,78.447784 301.431213,77.301460 301.364624,88.502998 
	C301.300201,99.335777 301.446686,110.170555 301.297028,121.001640 
	C301.249847,124.415878 302.342499,125.728470 305.876068,125.703743 
	C323.874939,125.577805 341.875122,125.626740 359.874786,125.657593 
	C362.693390,125.662422 365.079254,124.830284 367.076935,122.817108 
	C374.354156,115.483429 381.611694,108.129417 388.965576,100.873207 
	C390.989746,98.875877 391.383545,97.177048 390.244659,94.326195 
	C383.568207,77.614197 392.839844,62.181911 407.329193,58.388184 
	C424.783997,53.818020 440.078796,66.501106 440.575104,82.355492 
	C441.054840,97.680389 430.761597,108.460754 415.492920,110.273376 
	C414.836853,110.351257 414.068970,110.483185 413.510498,110.235344 
	C406.922546,107.311852 402.817413,110.772514 398.603790,115.340988 
	C392.168915,122.317787 385.269409,128.867905 378.525635,135.557266 
	C373.978973,140.067215 368.694092,142.512268 362.047180,142.440857 
	C343.716339,142.243851 325.380798,142.490753 307.049561,142.312943 
	C302.743378,142.271179 301.043732,143.537491 301.272369,148.000916 
	C301.587433,154.151306 301.623810,160.346085 301.261932,166.491379 
	C300.982269,171.240417 302.460724,172.804520 307.375214,172.759018 
	C332.206024,172.529160 357.040619,172.734100 381.872711,172.590866 
	C386.582031,172.563721 390.705566,173.661743 394.501953,176.308823 
	C401.118774,180.922562 406.486969,186.910797 411.741547,192.880463 
	C415.778961,197.467346 415.097107,202.333771 411.172516,205.775024 
	C407.862366,208.677536 402.372894,208.352722 398.949158,203.809753 
	C389.879059,191.774445 378.389038,187.976959 363.417633,189.032074 
	C344.843475,190.341080 326.105133,189.489914 307.441864,189.248550 
	C302.553192,189.185318 301.114349,190.826569 301.257599,195.577789 
	C301.563751,205.735107 301.457397,215.909668 301.296326,226.073593 
	C301.240997,229.563553 302.497620,231.029205 305.953430,230.670074 
	C306.942719,230.567276 307.962524,230.559586 308.949982,230.671036 
	C314.418243,231.288284 318.182892,230.126358 321.325623,224.509598 
	C326.971893,214.418442 336.937439,211.149277 347.935913,212.942261 
	C358.370300,214.643250 366.096375,220.758133 368.554504,231.421539 
	C371.480896,244.116379 368.466095,254.825165 356.415802,261.671997 
	C345.185883,268.052673 331.601624,265.742737 323.283081,256.315308 
	C322.843292,255.816864 322.394073,255.317734 322.023529,254.768784 
	C320.463226,252.457443 320.283539,248.471130 317.536377,247.897675 
	C313.217834,246.996201 308.607452,247.452820 304.119965,247.418030 
	C301.936890,247.401108 301.364227,248.862946 301.365387,250.766052 
	C301.374634,265.932343 301.391937,281.098724 301.349731,296.264893 
	C301.342224,298.957794 302.757660,299.656403 305.134552,299.653229 
	C328.300781,299.622406 351.467102,299.603912 374.633209,299.664459 
	C377.316406,299.671448 378.483978,298.064209 379.501892,296.084045 
	C387.305786,280.903046 405.986816,278.999786 417.621368,286.584167 
	C429.757812,294.495758 432.558228,312.008240 424.255188,323.900757 
	C413.093140,339.888306 386.591492,337.260834 379.131592,320.188232 
	C377.788910,317.115356 375.791809,316.249664 372.527527,316.271271 
	C350.695435,316.415710 328.861298,316.450165 307.029633,316.283295 
	C302.707153,316.250275 301.178070,317.530029 301.264191,321.972412 
	C301.512787,334.800720 301.465088,347.638611 301.281525,360.469116 
	C301.226837,364.290100 302.259705,365.773987 306.339661,365.730682 
	C324.170715,365.541351 342.005127,365.608826 359.837860,365.687042 
	C362.962433,365.700745 364.832764,365.053040 366.271057,361.710358 
	C370.587708,351.678314 381.692383,346.359283 394.116058,347.697235 
	C404.761993,348.843719 414.099548,357.866272 416.198486,369.034668 
	C418.143799,379.385620 412.690735,391.007690 403.503387,396.262115 
	C390.360443,403.778809 373.324188,399.670013 366.536133,385.761475 
	C365.375916,383.384247 363.703278,382.354492 361.028564,382.363403 
	C342.529114,382.425049 324.029327,382.416809 305.529785,382.368347 
	C302.620300,382.360748 301.294891,383.445923 301.323639,386.492737 
	C301.418091,396.491669 301.449127,406.493347 301.306610,416.491119 
	C301.257904,419.909790 302.801727,420.717743 305.867493,420.689819 
	C317.199677,420.586487 328.533600,420.693481 339.866516,420.641602 
	C346.029816,420.613403 351.150848,422.737793 355.433563,427.228302 
	C360.147400,432.170868 365.145416,436.842255 369.862854,441.781494 
	C371.679535,443.683655 373.412262,444.156891 375.981567,443.521942 
	C387.410065,440.697815 397.124908,443.779419 404.176697,453.221527 
	C410.856049,462.164948 411.245392,471.962738 406.015015,481.831787 
	C399.794556,493.569031 384.306274,498.348389 371.424164,492.629547 
	C359.799652,487.468964 353.344696,472.807190 357.974579,460.792023 
	C359.519409,456.783020 358.237396,454.833160 355.964966,451.733643 
	C347.010284,439.519806 335.354431,434.861176 320.589966,437.332703 
	C319.454895,437.522736 318.255127,437.285522 317.095184,437.374420 
	C312.160370,437.752625 305.973907,435.250580 302.598877,438.473328 
	C299.176086,441.741760 301.605804,447.967529 301.401978,452.885010 
	C301.090302,460.405151 299.904877,467.734222 297.132477,474.717743 
	C289.950928,492.807465 276.850586,504.724335 258.612427,511.178314 
	C257.538361,511.558380 256.500641,512.041077 255.223022,512.738037 
	C245.645767,513.000000 236.291550,513.000000 226.468658,513.000000 
	C220.967651,510.189850 215.227463,509.144928 210.172714,506.215179 
	C200.150024,500.406067 192.225204,492.645874 186.377731,482.730927 
	C185.185593,480.709564 183.976486,479.346527 181.399353,479.338684 
	C164.078201,479.285919 148.669296,473.634430 136.127930,461.796387 
	C125.256493,451.534637 118.011375,438.824615 116.824394,423.571533 
	C116.467880,418.990143 115.011932,417.964996 110.834862,418.240906 
	C107.248940,418.477753 103.569336,418.919006 99.986732,417.452515 
	C95.769485,415.726227 94.044815,412.637421 94.815056,408.377533 
	C95.590805,404.087280 98.492981,401.634399 102.888268,401.710052 
	C109.941360,401.831482 116.797203,400.993439 123.429474,398.549103 
	C128.115097,396.822205 132.537750,394.618378 136.506210,391.531952 
	C137.539505,390.728302 138.765930,390.125610 139.979843,389.610046 
	C144.473419,387.701599 148.896439,388.802032 151.056274,392.285858 
	C153.398758,396.064301 152.315125,401.358215 148.308731,404.236298 
	C144.137451,407.232819 140.030533,410.382538 135.241425,412.399750 
	C133.154846,413.278656 132.023911,414.631470 132.419891,417.021912 
	C134.498947,429.572510 138.773285,440.866852 148.668732,449.692535 
	C163.425339,462.853821 183.886810,466.322632 201.738464,457.084320 
	C205.004105,455.394348 208.152161,453.617249 210.821960,451.025238 
	C212.001266,449.880341 213.435944,448.950409 214.871582,448.126617 
	C219.061432,445.722565 224.145340,446.662537 226.416748,450.159271 
	C228.878159,453.948486 227.947159,459.177704 224.475250,462.228760 
	C218.051224,467.874023 210.666321,471.964752 203.015167,475.536682 
	C206.735550,487.327301 224.561615,496.717041 242.731689,496.648621 
	C256.995789,496.594910 274.448395,485.057373 278.161041,473.010315 
	C276.026459,471.798462 273.649048,472.551483 271.419891,472.339020 
	C265.559265,471.780426 262.502228,468.755676 262.684509,463.577789 
	C262.865295,458.442261 266.098206,455.691895 271.999939,455.652679 
	C284.669434,455.568481 284.667786,455.568451 284.662506,443.049713 
	C284.657532,431.217682 284.534424,419.383728 284.723358,407.554749 
	C284.785492,403.665619 283.528198,402.112793 279.568787,402.310333 
	C274.747955,402.550873 269.898315,402.545715 265.074677,402.335693 
	C249.748810,401.668335 241.527496,410.381317 239.386078,424.380798 
	C238.397964,430.840546 234.985367,433.408173 228.777985,432.273651 
	C224.704834,431.529236 222.393112,426.703064 223.033157,421.612213 
	C224.049210,413.530457 226.297821,406.012726 231.666290,399.729248 
	C238.735992,391.454559 247.537308,386.229828 258.583374,385.713196 
	C265.567261,385.386536 272.581970,385.531036 279.576874,385.704559 
	C283.067902,385.791138 284.723694,384.861755 284.709747,380.971252 
	C284.600159,350.308411 284.573090,319.644623 284.725159,288.982117 
	C284.750092,283.951721 281.742920,284.349152 278.489868,284.350311 
	C241.660645,284.363525 204.831406,284.366913 168.002197,284.346466 
	C165.860306,284.345276 163.732651,284.502441 161.591354,283.743469 
	C157.182098,282.180634 154.917114,278.973114 155.761459,274.137878 
	C156.509796,269.852448 159.325287,267.631500 163.801758,267.640961 
	C175.467087,267.665680 187.132477,267.647369 198.797852,267.647797 
	C225.461548,267.648712 252.125977,267.550873 278.788239,267.746704 
	C283.430023,267.780792 284.762024,266.329010 284.743713,261.754425 
	C284.591370,223.759308 284.599670,185.763016 284.750122,147.767838 
	C284.766937,143.525818 283.311401,142.292847 279.284332,142.321167 
	C260.287415,142.454727 241.288986,142.405380 222.291168,142.378860 
	C203.434052,142.352539 186.409058,126.726105 184.633499,107.928970 
	C184.357330,105.005318 183.347305,102.263184 184.574417,99.157394 
	C186.138031,95.199997 189.281891,93.833755 192.760971,93.917648 
	C196.659882,94.011673 199.574585,96.236801 200.305023,100.550484 
	C201.470840,107.435287 202.488937,114.344757 208.395111,119.270538 
	C212.857010,122.991814 217.623703,125.656593 223.602142,125.651886 
	C242.266739,125.637169 260.932129,125.556206 279.595306,125.718132 
	C283.610229,125.752968 284.764801,124.271996 284.714539,120.443787 
	C284.548157,107.780769 284.539490,95.112335 284.732056,82.449951 
	C284.791748,78.523796 283.491913,77.001541 279.548462,77.296371 
	C276.235718,77.544052 272.878235,77.455368 269.556305,77.254936 
	C264.985260,76.979156 262.567383,74.016350 262.677368,69.184067 
	C262.780640,64.646759 265.206055,61.975986 269.628601,61.690506 
	C274.401337,61.382416 279.226593,62.111629 283.953033,61.227821 
	C284.440948,41.662704 270.622131,22.397694 247.513962,17.568876 
	C230.671494,14.049371 208.245636,24.588665 202.807953,38.334316 
	C207.069794,40.683563 211.582809,42.749283 215.645294,45.484219 
	C232.561447,56.872437 242.855820,72.397537 244.254196,93.108566 
	C244.439880,95.858650 245.835587,98.399902 244.847015,101.428467 
	C243.313049,106.127892 240.192749,107.551636 235.715988,107.311783 
	C231.289032,107.074593 229.146729,104.454659 228.707001,100.352333 
	C227.580734,89.845230 225.120224,79.965797 218.714951,71.127121 
	C207.967606,56.296814 186.110870,48.459435 168.713043,53.636463 
	C147.028763,60.089012 135.669891,75.097206 132.446793,96.944572 
	C132.179321,98.757607 132.588181,100.534706 132.978134,102.354706 
	C134.970398,111.653114 129.502884,117.449928 120.396568,115.036598 
	C103.121895,110.458527 87.971191,114.762466 75.196487,126.286049 
	C66.289528,134.320679 60.683300,144.845886 60.397758,157.362106 
	C60.303604,161.489426 59.894043,165.649231 60.860947,169.788330 
	C61.722744,173.477524 63.331337,174.596130 67.215134,173.394821 
	C74.988625,170.990372 83.019104,169.653320 91.194374,169.687317 
	C96.964561,169.711304 101.338310,173.353394 101.055206,178.078369 
	C100.781090,182.653229 97.145393,186.296219 91.296181,186.531387 
	C56.870125,187.915497 28.104828,211.105988 22.715729,246.582047 
	C18.535332,274.101257 28.904455,296.616608 50.915390,313.675751 
	C52.070141,314.570679 53.430969,315.199707 54.799690,316.014343 
	C61.342461,309.407990 67.446983,302.546783 75.625114,298.119965 
	C79.124878,296.225555 82.696556,295.892090 86.018715,298.183716 
	C88.888435,300.163269 89.541199,303.423950 89.177498,306.641937 
	C88.705849,310.815033 84.976135,312.521698 81.983200,314.341156 
	C59.410065,328.063690 53.133610,359.839569 68.935860,380.997650 
	C71.197083,384.025208 73.586044,386.870117 73.465813,391.202087 
	C73.361816,394.949371 71.548027,397.347076 68.717461,398.772614 
	C65.897812,400.192688 62.846302,399.435883 60.357193,397.287842 
	C54.528755,392.258087 50.989288,385.634216 48.118465,378.724152 
	C42.378418,364.907898 42.032967,350.623718 45.710297,336.259460 
	C46.485645,333.230804 46.246845,331.399445 43.601402,329.517609 
	C34.899029,323.327148 27.158358,316.188538 20.991465,307.295776 
	C11.785494,294.020660 6.592980,279.628845 5.485632,263.400330 
	C4.372238,247.083145 7.085227,231.803802 14.323913,217.216934 
	C20.519396,204.732254 29.459038,194.593735 40.823059,186.683029 
	C44.912758,183.836121 46.167980,181.490082 45.059181,175.968414 
	C40.398087,152.756927 44.912777,131.424713 62.443604,114.548149 
	C74.535339,102.907677 89.274773,96.398811 106.512810,96.637497 
	C115.475929,96.761612 115.210335,96.606506 116.804245,88.063530 
	C121.587639,62.425583 140.360962,42.785625 165.320496,36.748009 
	C170.815033,35.418900 176.460327,35.264362 182.053314,35.112919 
	C184.006332,35.060032 184.697174,34.355213 185.438339,32.999561 
	C194.269638,16.846386 207.578766,6.424381 225.409409,1.797074 
	C226.052765,1.630116 226.696228,1.463490 227.669815,1.148354 
	C235.687576,1.000000 243.375168,1.000000 251.531372,1.000000 
M380.876099,371.343811 
	C380.218140,376.713928 382.683075,381.153870 387.012909,382.397675 
	C391.709595,383.746918 396.223785,381.777527 398.276215,377.483917 
	C400.503113,372.825348 399.226654,368.816864 394.485809,365.580750 
	C389.783356,362.370850 384.391754,364.442627 380.876099,371.343811 
M349.516357,64.043182 
	C348.619659,63.338673 347.800446,62.492119 346.813202,61.953583 
	C341.831055,59.235874 337.486603,60.271183 334.285950,64.847214 
	C332.018860,68.088509 332.720398,73.787216 335.727448,76.556877 
	C338.880188,79.460732 344.235931,79.784279 347.542816,77.270699 
	C351.884338,73.970688 352.692780,69.554848 349.516357,64.043182 
M373.404816,468.543518 
	C373.737915,469.822205 373.926941,471.161011 374.430786,472.368439 
	C376.016907,476.169434 379.372742,478.100983 383.066376,478.067657 
	C387.028717,478.031921 390.096191,475.709503 391.754547,471.680939 
	C393.283081,467.967834 391.879272,465.236542 389.523865,462.707031 
	C383.827179,456.589325 376.780121,458.837830 373.404816,468.543518 
M404.157074,317.626007 
	C409.800171,315.991852 412.950470,311.583954 411.854492,306.855835 
	C410.672760,301.758057 406.317596,298.714813 401.180634,299.397430 
	C396.708313,299.991730 393.237366,304.192413 393.367615,308.853119 
	C393.509888,313.942139 397.277863,317.249908 404.157074,317.626007 
M423.484589,81.240456 
	C420.086639,74.264519 413.873230,72.178688 408.800995,76.311249 
	C405.490723,79.008247 404.217102,84.026878 405.964478,87.488319 
	C407.952454,91.426346 412.406250,93.515999 416.796570,92.570587 
	C421.188965,91.624718 423.629669,87.831848 423.484589,81.240456 
M334.570068,242.087173 
	C337.602722,247.393646 342.206970,249.387360 346.849884,247.404556 
	C351.115540,245.582855 353.697540,240.441055 352.370392,236.410858 
	C350.912018,231.981964 345.647583,228.675949 341.483612,229.574081 
	C336.449463,230.659897 333.546967,235.506317 334.570068,242.087173 
z"/>
<path fill="#000000" opacity="1.000000" stroke="none" 
	d="
M110.619614,149.403595 
	C107.584229,149.000549 104.928436,148.785294 102.355629,148.203247 
	C98.780388,147.394394 96.103302,142.701050 96.737785,138.750610 
	C97.367256,134.831329 102.226044,131.359848 106.356346,131.824646 
	C117.931351,133.127182 128.708618,136.245880 137.389465,144.648804 
	C145.719940,152.712570 150.522705,162.409317 151.318054,173.967545 
	C152.001007,183.892471 150.947800,193.502975 145.495377,202.221283 
	C137.892624,214.377945 127.267776,222.049973 113.000458,224.362946 
	C109.915909,224.862991 106.863487,225.856079 103.651779,225.137909 
	C98.791481,224.051086 96.338783,221.044830 96.716965,216.335526 
	C97.092522,211.658798 99.758362,209.187973 104.364845,208.685165 
	C110.844154,207.977905 116.829643,206.282181 122.426704,202.509964 
	C137.198669,192.554260 139.024261,169.342850 125.708321,157.423950 
	C121.421356,153.586761 116.694168,150.686203 110.619614,149.403595 
z"/>
<path fill="#000000" opacity="1.000000" stroke="none" 
	d="
M179.983917,322.649048 
	C183.647079,322.655182 186.818558,322.549713 189.978882,322.692200 
	C195.662949,322.948486 199.565567,326.722229 199.317703,331.541931 
	C199.059708,336.557983 195.730789,339.348328 189.850433,339.354950 
	C170.184937,339.377136 150.519379,339.363708 130.853851,339.371735 
	C114.888512,339.378265 106.341057,346.944763 104.297905,362.863251 
	C103.725517,367.322815 100.528412,370.318939 96.369339,370.293396 
	C91.220734,370.261780 87.836769,367.373596 87.778702,361.939789 
	C87.689804,353.620575 89.973320,345.715393 94.914749,339.021790 
	C103.426804,327.491394 115.407257,322.682617 129.490051,322.656830 
	C146.155716,322.626312 162.821487,322.649353 179.983917,322.649048 
z"/>
<path fill="#000000" opacity="1.000000" stroke="none" 
	d="
M152.700165,420.926453 
	C154.682510,417.127258 157.828186,416.006348 161.480087,415.630890 
	C173.214249,414.424286 181.531128,405.835968 181.646393,394.894501 
	C181.769852,383.173492 174.184082,374.859161 161.962845,373.320435 
	C154.229309,372.346741 150.995575,368.325623 152.542633,362.012848 
	C153.603638,357.683441 156.743271,356.964081 160.408981,356.661407 
	C174.936981,355.461945 190.902481,365.782135 196.266968,380.875824 
	C204.393265,403.740234 191.082016,427.787079 167.149628,432.009460 
	C158.024490,433.619415 154.031204,432.777222 152.282684,425.628326 
	C151.888000,424.014587 152.134949,422.717377 152.700165,420.926453 
z"/>
<path fill="#000000" opacity="1.000000" stroke="none" 
	d="
M236.845490,230.650330 
	C241.085327,230.022308 244.669876,228.732971 247.637253,226.208939 
	C253.056351,221.599503 255.422012,214.555771 253.321762,208.892715 
	C250.631058,201.637512 245.669907,197.050278 237.631424,196.362625 
	C230.177414,195.724976 227.139938,191.122360 229.585388,184.488922 
	C230.789001,181.224030 233.183548,179.780579 236.410431,179.694839 
	C253.720551,179.234909 268.576233,192.112228 270.442139,208.721008 
	C272.105042,223.522675 266.417206,234.427155 254.436630,242.452133 
	C249.511536,245.751114 243.709351,246.823624 237.932312,247.235352 
	C233.121155,247.578278 229.069672,243.708344 228.745956,239.261139 
	C228.411530,234.666702 230.974655,231.800858 236.845490,230.650330 
z"/>
<path fill="#000000" opacity="1.000000" stroke="none" 
	d="
M186.346924,203.263702 
	C189.667633,196.949524 190.206268,190.298874 191.512878,183.823776 
	C192.546646,178.700867 195.489059,176.777176 200.354034,177.390228 
	C205.008713,177.976776 207.200378,180.449341 207.328079,185.488571 
	C207.765274,202.738586 200.773987,216.357361 187.788940,227.584045 
	C178.814331,235.343307 168.393280,238.723007 157.104660,240.252121 
	C149.058884,241.341965 144.622620,237.934753 144.678375,231.298721 
	C144.713730,227.090027 147.380402,224.036575 151.548920,223.675339 
	C160.642105,222.887375 169.029053,220.380203 176.522278,214.861908 
	C180.690765,211.792023 182.944794,207.333221 186.346924,203.263702 
z"/>
<path fill="#000000" opacity="1.000000" stroke="none" 
	d="
M84.122650,281.289490 
	C67.151405,273.569946 58.230671,260.002045 58.608913,243.473114 
	C58.720394,238.601547 60.918770,236.032135 65.550056,235.333496 
	C70.301575,234.616714 73.343124,236.655334 74.451073,241.730957 
	C75.799049,247.906082 76.894775,254.095322 81.304298,259.061188 
	C86.778786,265.226379 93.921303,267.386658 101.799805,267.619324 
	C107.793137,267.796295 113.796249,267.612640 119.794357,267.664764 
	C125.695259,267.716003 128.570267,270.191010 128.883774,275.345215 
	C129.148239,279.692932 126.092667,283.698547 121.037155,284.079865 
	C113.083733,284.679749 105.043320,284.903473 97.102760,283.900757 
	C92.879395,283.367462 88.433250,283.547699 84.122650,281.289490 
z"/>
<path fill="#000000" opacity="1.000000" stroke="none" 
	d="
M150.587738,91.636185 
	C152.852753,75.233154 168.503281,62.492989 184.464462,63.682106 
	C190.516647,64.132996 193.443542,66.954559 193.320038,72.219025 
	C193.201859,77.257111 189.993195,80.072968 184.030518,80.371338 
	C174.610672,80.842697 169.335693,85.536362 167.183731,94.927422 
	C166.297226,98.796150 165.296051,102.809265 160.093552,103.331215 
	C153.050690,104.037804 149.459167,99.880737 150.587738,91.636185 
z"/>
<path fill="#000000" opacity="1.000000" stroke="none" 
	d="
M260.326324,331.030518 
	C259.611908,336.798309 257.112061,339.291901 252.042816,339.329803 
	C241.886429,339.405792 231.728516,339.408386 221.572281,339.321350 
	C216.366287,339.276764 213.060226,336.350220 212.705444,331.813080 
	C212.351166,327.282166 215.684357,322.993103 220.720551,322.830475 
	C231.198318,322.492096 241.706177,322.443237 252.177811,322.865967 
	C256.494965,323.040253 260.160675,325.345123 260.326324,331.030518 
z"/>
<path fill="#000000" opacity="1.000000" stroke="none" 
	d="
M490.403320,272.029663 
	C483.638947,284.229126 469.318604,289.549225 457.438477,284.577911 
	C444.319000,279.088013 437.704468,265.949554 441.648682,252.603821 
	C442.627472,249.291885 442.183411,246.993179 439.678986,244.675079 
	C436.139496,241.398895 432.749451,237.947144 429.467987,234.410431 
	C426.499359,231.210892 425.318207,227.628738 428.204834,223.642548 
	C430.772614,220.096634 434.789154,219.068054 439.134521,221.204712 
	C444.191681,223.691376 447.424957,228.326309 451.240356,232.219971 
	C453.662506,234.691833 455.754120,235.878265 459.447693,234.797379 
	C475.144562,230.203857 489.728912,240.426620 492.703308,254.301544 
	C494.037781,260.526611 492.922363,266.090057 490.403320,272.029663 
M472.129822,252.266388 
	C470.752899,251.740341 469.412689,250.921158 467.992157,250.743073 
	C463.693481,250.204086 460.787811,252.524902 458.649078,255.942795 
	C456.664459,259.114410 456.992828,262.226837 459.272400,265.154999 
	C463.050659,270.008209 468.659637,270.697906 473.062744,266.856171 
	C477.644470,262.858521 477.511139,257.885254 472.129822,252.266388 
z"/>
<path fill="#000000" opacity="1.000000" stroke="none" 
	d="
M430.746216,446.245605 
	C422.959564,437.375549 421.497314,427.700653 425.896240,417.313568 
	C430.331299,406.841125 439.081085,401.738831 449.920349,401.880219 
	C462.260986,402.041199 470.881866,407.772217 475.003265,419.476379 
	C479.040375,430.941345 474.712158,443.016327 464.618195,450.105988 
	C454.561218,457.169678 441.325684,455.780518 430.746216,446.245605 
M453.074036,419.559235 
	C447.341705,418.396820 443.037689,420.373260 441.347534,424.944153 
	C439.558044,429.783508 441.471344,434.110931 446.570038,436.756409 
	C450.273041,438.677734 454.513672,437.248322 457.766296,432.982513 
	C461.154144,428.539398 459.692963,423.815826 453.074036,419.559235 
z"/>
<path fill="#000000" opacity="1.000000" stroke="none" 
	d="
M492.242371,325.268280 
	C510.985321,332.403625 513.999939,356.721588 501.104858,368.932770 
	C493.689453,375.954956 481.867828,378.281036 472.967499,374.368958 
	C462.428040,369.736389 457.124847,362.059174 456.468048,350.172485 
	C455.588287,334.250549 471.628021,318.544373 492.242371,325.268280 
M488.531860,342.876801 
	C487.654755,342.401337 486.790344,341.900543 485.898438,341.454712 
	C481.562988,339.287750 478.106964,340.954681 475.374847,344.281647 
	C472.539398,347.734467 472.337952,351.513245 475.144745,355.217285 
	C478.541382,359.699860 484.242828,360.463745 488.743591,357.043671 
	C492.585052,354.124573 492.737671,348.378204 488.531860,342.876801 
z"/>
<path fill="#000000" opacity="1.000000" stroke="none" 
	d="
M447.874451,133.499878 
	C459.233276,128.291046 476.567841,133.582901 482.126709,147.842316 
	C487.485779,161.589325 480.595703,177.382065 467.323578,182.421249 
	C453.495758,187.671432 438.020233,181.449692 433.164795,167.927643 
	C428.525055,155.006317 432.505219,139.440521 447.874451,133.499878 
M465.843719,162.135468 
	C467.334412,158.080139 467.237396,154.159668 463.775299,151.223816 
	C461.407776,149.216187 458.634003,147.468048 455.153778,148.904922 
	C451.195282,150.539246 448.507172,153.079849 448.339417,157.685410 
	C448.177948,162.116516 450.474243,164.944687 454.306549,166.455704 
	C458.897552,168.265869 462.642670,166.627258 465.843719,162.135468 
z"/>
</svg>